# xmcd
#
# Track frame offsets:
#	150
#	12086
#	25686
#	38471
#	53859
#	68200
#	79250
#	98693
#	112835
#	128105
#	141370
#	153403
#	164852
#	175777
#	189606
#	201757
#	212037
#	226118
#
# Disc length: 3206 seconds
#
# Revision: 0
# Processed by: cddbd v1.5.2PL0 Copyright (c) Steve Scherf et al.
# Submitted via: audiograbber 1.83.01
#
DISCID=ea0c8412
DTITLE=Various Artist - Roots Of The Blues - Disc 4
DYEAR=2010
DGENRE=Blues
TTITLE0=T-Bone Walker - Sail On Boogie
TTITLE1=B.B. King - Three O'Clock Blues
TTITLE2=Billie Holiday - Am I Blue
TTITLE3=B.B. King - Walkin' And Cryin'
TTITLE4=Big Joe Williams - Stack O' Dollars
TTITLE5=B.B. King - When Your Baby Packs Up And Goes
TTITLE6=Leadbelly - John Hardy
TTITLE7=B.B. King - Why Did You Leave Me
TTITLE8=Mississippi John Hurt - Frankie
TTITLE9=B.B. King - Woke Up This Morning
TTITLE10=Lightnin' Hopkins - Come Back Baby
TTITLE11=B.B. King - You Didn't Want Me
TTITLE12=Arthur "Big Boy" Crudup - Gotta Follow My Baby
TTITLE13=B.B. King - You Know I Love You
TTITLE14=Big Joe Williams - Peach Orchard Mama
TTITLE15=Robert Johnson - Stop Breakin Down Blues
TTITLE16=Bessie Smith - Keeps On A Rainin'
TTITLE17=Ma Rainey - Toad Frog Blues
EXTD=Roots Of The Blues\n4 CD Set - Disc 4 - Play 4-012D\nPlay 24-7 -- Play 4-0
EXTD=12 -- Compiled 2010\n72 Blues Standards That Inspired Generations\nDigital
EXTD=ly Remastered
EXTT0=
EXTT1=
EXTT2=
EXTT3=
EXTT4=
EXTT5=
EXTT6=
EXTT7=
EXTT8=
EXTT9=
EXTT10=
EXTT11=
EXTT12=
EXTT13=
EXTT14=
EXTT15=
EXTT16=
EXTT17=
PLAYORDER=
